<?xml version="1.0" encoding="UTF-8"?>
<svg xmlns="http://www.w3.org/2000/svg" xmlns:xlink="http://www.w3.org/1999/xlink" width="32px" height="32px" viewBox="0 0 24 20" version="1.1">
<g id="surface1">
<path style=" stroke:none;fill-rule:nonzero;fill:rgb(100%,100%,100%);fill-opacity:1;" d="M 11.25 17 L 7 17 C 5.617188 17 4.4375 16.511719 3.460938 15.539062 C 2.488281 14.5625 2 13.382812 2 12 C 2 10.617188 2.488281 9.4375 3.460938 8.460938 C 4.4375 7.488281 5.617188 7 7 7 L 11.25 7 L 11.25 8.5 L 7 8.5 C 6.035156 8.5 5.207031 8.839844 4.523438 9.523438 C 3.839844 10.207031 3.5 11.035156 3.5 12 C 3.5 12.964844 3.839844 13.792969 4.523438 14.476562 C 5.207031 15.160156 6.035156 15.5 7 15.5 L 11.25 15.5 Z M 8.125 12.75 L 8.125 11.25 L 15.875 11.25 L 15.875 12.75 Z M 12.75 17 L 12.75 15.5 L 17 15.5 C 17.964844 15.5 18.792969 15.160156 19.476562 14.476562 C 20.160156 13.792969 20.5 12.964844 20.5 12 C 20.5 11.035156 20.160156 10.207031 19.476562 9.523438 C 18.792969 8.839844 17.964844 8.5 17 8.5 L 12.75 8.5 L 12.75 7 L 17 7 C 18.382812 7 19.5625 7.488281 20.539062 8.460938 C 21.511719 9.4375 22 10.617188 22 12 C 22 13.382812 21.511719 14.5625 20.539062 15.539062 C 19.5625 16.511719 18.382812 17 17 17 Z M 12.75 17 "/>
</g>
</svg>
